<?xml version="1.0" encoding="UTF-8" standalone="no"?>
<svg width="533px" height="54px" viewBox="0 0 533 54" version="1.1" xmlns="http://www.w3.org/2000/svg" xmlns:xlink="http://www.w3.org/1999/xlink">
    <!-- Generator: Sketch 3.8.3 (29802) - http://www.bohemiancoding.com/sketch -->
    <title>genesis-block-logo</title>
    <desc>Created with Sketch.</desc>
    <defs></defs>
    <g id="Page-1" stroke="none" stroke-width="1" fill="none" fill-rule="evenodd">
        <g id="Portfolio" transform="translate(-452.000000, -1358.000000)">
            <g id="genesis-block" transform="translate(0.000000, 1031.000000)">
                <g id="top-container">
                    <g id="text-container" transform="translate(452.000000, 254.000000)">
                        <g id="genesis-block-logo" transform="translate(0.000000, 73.000000)">
                            <g id="type" transform="translate(62.323502, 18.736287)" fill="#FFFFFF">
                                <path d="M262.978639,2.49372853 L262.978639,4.37904355 C260.279885,2.94108423 257.634296,2.22211535 255.041792,2.22211535 C252.279288,2.22211535 249.968382,3.16476343 248.109005,5.05008787 C246.249627,6.93541231 245.319952,9.28936966 245.319952,12.1120305 C245.319952,14.9666461 246.25494,17.3152777 248.124942,19.157996 C249.994945,21.0007142 252.380225,21.9220595 255.280854,21.9220595 C257.703357,21.9220595 260.343634,21.1604851 263.201763,19.6373133 L263.201763,21.4267649 C260.566759,22.822118 257.937107,23.5197841 255.312729,23.5197841 C251.923349,23.5197841 249.099794,22.4306794 246.841978,20.2524373 C244.584162,18.0741952 243.455271,15.3607534 243.455271,12.1120305 C243.455271,8.84200454 244.608068,6.10992282 246.913697,3.91570342 C249.219325,1.72148401 251.96585,0.624390768 255.153354,0.624390768 C257.660858,0.624390768 260.26926,1.24749713 262.978639,2.49372853 L262.978639,2.49372853 Z M277.370149,0.624390768 C280.663904,0.624390768 283.455584,1.73479825 285.745275,3.95564653 C288.034966,6.17649481 289.179794,8.8846109 289.179794,12.0800761 C289.179794,15.2648897 288.034966,17.96768 285.745275,20.1885283 C283.455584,22.4093766 280.663904,23.5197841 277.370149,23.5197841 C274.08702,23.5197841 271.305964,22.4093766 269.026898,20.1885283 C266.747832,17.96768 265.608317,15.2648897 265.608317,12.0800761 C265.608317,8.8846109 266.747832,6.17649481 269.026898,3.95564653 C271.305964,1.73479825 274.08702,0.624390768 277.370149,0.624390768 L277.370149,0.624390768 Z M277.433899,21.9220595 C280.207028,21.9220595 282.547152,20.9714229 284.454342,19.0701211 C286.361532,17.1688194 287.315113,14.8388276 287.315113,12.0800761 C287.315113,9.31067292 286.361532,6.9753555 284.454342,5.07405374 C282.547152,3.17275198 280.207028,2.22211535 277.433899,2.22211535 C274.650145,2.22211535 272.294083,3.17275198 270.365643,5.07405374 C268.437203,6.9753555 267.472997,9.31067292 267.472997,12.0800761 C267.472997,14.8388276 268.437203,17.1688194 270.365643,19.0701211 C272.294083,20.9714229 274.650145,21.9220595 277.433899,21.9220595 L277.433899,21.9220595 Z M313.436581,0.911981194 L313.436581,23.2321937 L312.002212,23.2321937 L295.092585,3.72397647 L295.092585,23.2321937 L293.371341,23.2321937 L293.371341,0.911981194 L294.837586,0.911981194 L311.715338,20.4201984 L311.715338,0.911981194 L313.436581,0.911981194 Z M329.039338,2.0303884 L329.039338,3.93168066 C327.105585,2.79196476 325.442795,2.22211535 324.050918,2.22211535 C322.712166,2.22211535 321.5939,2.62953105 320.696087,3.44437466 C319.798273,4.25921828 319.349373,5.26843755 319.349373,6.47206275 C319.349373,7.33483834 319.614994,8.11238987 320.146245,8.80474065 C320.677495,9.49709143 321.787793,10.1628034 323.47717,10.8018964 C325.166548,11.4409894 326.399031,11.9735589 327.174657,12.399621 C327.950283,12.825683 328.609024,13.4434637 329.1509,14.2529815 C329.692776,15.0624993 329.963709,16.1116613 329.963709,17.4004989 C329.963709,19.1153986 329.336843,20.5639877 328.083091,21.7463098 C326.829339,22.9286319 325.29936,23.5197841 323.493108,23.5197841 C321.644355,23.5197841 319.742506,22.8700493 317.787503,21.5705601 L317.787503,19.5414499 C319.944381,21.1285309 321.814356,21.9220595 323.397483,21.9220595 C324.714985,21.9220595 325.827938,21.493341 326.736377,20.6358912 C327.644816,19.7784414 328.099029,18.7266166 328.099029,17.4803852 C328.099029,16.5323972 327.81747,15.6776231 327.254344,14.9160372 C326.691218,14.1544513 325.549046,13.443471 323.827794,12.7830749 C322.106542,12.1226787 320.876715,11.5901092 320.138276,11.1853503 C319.399838,10.7805914 318.772971,10.2027534 318.257658,9.45181911 C317.742345,8.7008848 317.484692,7.73427109 317.484692,6.55194898 C317.484692,4.91161021 318.111558,3.51361517 319.36531,2.35792194 C320.619062,1.20222872 322.127791,0.624390768 323.891544,0.624390768 C325.623421,0.624390768 327.339335,1.09305196 329.039338,2.0303884 L329.039338,2.0303884 Z M350.299886,0.911981194 L352.02113,0.911981194 L352.02113,13.0866425 C352.02113,16.4205778 351.155204,18.9928887 349.423327,20.8036523 C347.691449,22.6144159 345.449605,23.5197841 342.697726,23.5197841 C339.956472,23.5197841 337.71994,22.6250673 335.988063,20.8356068 C334.256185,19.0461463 333.390259,16.5963264 333.390259,13.4860737 L333.390259,0.911981194 L335.127441,0.911981194 L335.127441,13.4221647 C335.127441,16.0850523 335.831337,18.1673992 337.239152,19.6692678 C338.646966,21.1711365 340.466473,21.9220595 342.697726,21.9220595 C344.950229,21.9220595 346.78036,21.1631479 348.188175,19.645302 C349.595989,18.127456 350.299886,15.9732122 350.299886,13.182506 L350.299886,0.911981194 Z M358.396107,0.911981194 L358.396107,21.7942415 L369.408879,21.7942415 L369.408879,23.2321937 L356.674863,23.2321937 L356.674863,0.911981194 L358.396107,0.911981194 Z M385.362259,0.911981194 L385.362259,2.34993332 L377.01104,2.34993332 L377.01104,23.2321937 L375.273858,23.2321937 L375.273858,2.34993332 L366.922638,2.34993332 L366.922638,0.911981194 L385.362259,0.911981194 Z M393.601917,0.752208735 L403.881568,23.2321937 L402.080637,23.2321937 L398.558462,15.5151839 L387.689126,15.5151839 L384.166951,23.2321937 L382.36602,23.2321937 L392.645671,0.752208735 L393.601917,0.752208735 Z M397.905027,14.0772318 L393.107856,3.56420401 L388.342561,14.0772318 L397.905027,14.0772318 Z M426.624298,0.911981194 L426.624298,23.2321937 L425.189928,23.2321937 L408.280302,3.72397647 L408.280302,23.2321937 L406.559058,23.2321937 L406.559058,0.911981194 L408.025303,0.911981194 L424.903054,20.4201984 L424.903054,0.911981194 L426.624298,0.911981194 Z M450.2914,2.49372853 L450.2914,4.37904355 C447.592646,2.94108423 444.947057,2.22211535 442.354554,2.22211535 C439.59205,2.22211535 437.281144,3.16476343 435.421766,5.05008787 C433.562389,6.93541231 432.632714,9.28936966 432.632714,12.1120305 C432.632714,14.9666461 433.567701,17.3152777 435.437704,19.157996 C437.307706,21.0007142 439.692986,21.9220595 442.593615,21.9220595 C445.016119,21.9220595 447.656395,21.1604851 450.514524,19.6373133 L450.514524,21.4267649 C447.879521,22.822118 445.249869,23.5197841 442.62549,23.5197841 C439.236111,23.5197841 436.412555,22.4306794 434.15474,20.2524373 C431.896924,18.0741952 430.768033,15.3607534 430.768033,12.1120305 C430.768033,8.84200454 431.92083,6.10992282 434.226458,3.91570342 C436.532086,1.72148401 439.278611,0.624390768 442.466116,0.624390768 C444.973619,0.624390768 447.582021,1.24749713 450.2914,2.49372853 L450.2914,2.49372853 Z M470.29289,0.911981194 L461.638859,11.2492593 L461.638859,23.2321937 L459.917615,23.2321937 L459.917615,11.2492593 L451.263584,0.911981194 L453.351389,0.911981194 L460.794175,9.74739816 L468.205085,0.911981194 L470.29289,0.911981194 Z" id="CONSULTANCY" fill-opacity="0.844429348"></path>
                                <path d="M12.8551411,12.2398485 L20.3298016,12.2398485 L20.3298016,21.6983781 C17.5885478,22.8913517 14.8685848,23.4878296 12.1698311,23.4878296 C8.48295095,23.4878296 5.53720979,22.4093763 3.33251922,20.2524373 C1.12782866,18.0954983 0.025499908,15.4353135 0.025499908,12.271803 C0.025499908,8.9378677 1.16767186,6.16318041 3.45205004,3.94765791 C5.73642822,1.7321354 8.59982675,0.624390768 12.0423315,0.624390768 C13.2960833,0.624390768 14.4860671,0.760196 15.6123187,1.03181054 C16.7385702,1.30342508 18.1623009,1.80137759 19.8835533,2.52568303 L19.8835533,5.78504118 C17.2272996,4.24056636 14.5923354,3.46834053 11.9785818,3.46834053 C9.54545339,3.46834053 7.4948563,4.29914901 5.82672897,5.96079089 C4.15860165,7.62243276 3.3245505,9.66217409 3.3245505,12.0800761 C3.3245505,14.6151451 4.15860165,16.6868406 5.82672897,18.2952247 C7.4948563,19.9036088 9.64107709,20.7077888 12.2654557,20.7077888 C13.5404575,20.7077888 15.0651243,20.4148756 16.8395017,19.8290403 L17.1423131,19.7331768 L17.1423131,15.0837983 L12.8551411,15.0837983 L12.8551411,12.2398485 Z M24.9835348,0.911981194 L37.6059893,0.911981194 L37.6059893,3.75593096 L28.1710233,3.75593096 L28.1710233,10.5622377 L37.2872404,10.5622377 L37.2872404,13.4221647 L28.1710233,13.4221647 L28.1710233,20.3562894 L37.9088007,20.3562894 L37.9088007,23.2002392 L24.9835348,23.2002392 L24.9835348,0.911981194 Z M58.9940371,0.911981194 L62.0221512,0.911981194 L62.0221512,23.2321937 L59.2809111,23.2321937 L44.3953398,6.05665436 L44.3953398,23.2321937 L41.3991006,23.2321937 L41.3991006,0.911981194 L43.9809663,0.911981194 L58.9940371,18.2313157 L58.9940371,0.911981194 Z M66.7874465,0.911981194 L79.4099009,0.911981194 L79.4099009,3.75593096 L69.974935,3.75593096 L69.974935,10.5622377 L79.0911521,10.5622377 L79.0911521,13.4221647 L69.974935,13.4221647 L69.974935,20.3562894 L79.7127124,20.3562894 L79.7127124,23.2002392 L66.7874465,23.2002392 L66.7874465,0.911981194 Z M88.6217427,13.8695276 L86.1992514,12.399621 C84.6798743,11.4729361 83.5987953,10.5595793 82.9559819,9.6595233 C82.3131685,8.75946729 81.9917666,7.72361954 81.9917666,6.55194898 C81.9917666,4.79444315 82.6000396,3.36715679 83.8166038,2.27004709 C85.033168,1.17293739 86.6136152,0.624390768 88.5579929,0.624390768 C90.4173705,0.624390768 92.1226598,1.14630891 93.673912,2.19016086 L93.673912,5.81699567 C92.0695347,4.27252085 90.3429957,3.50029502 88.4942432,3.50029502 C87.4529917,3.50029502 86.5976909,3.74261416 85.9283149,4.22725971 C85.258939,4.71190526 84.9242561,5.33234877 84.9242561,6.08860885 C84.9242561,6.75965653 85.1686277,7.38808859 85.6573784,7.97392386 C86.1461291,8.55975914 86.9376808,9.17221411 88.0320573,9.81130714 L90.470486,11.2492593 C93.1904898,12.8682949 94.5504713,14.9346647 94.5504713,17.4484307 C94.5504713,19.2378911 93.9528232,20.691806 92.757509,21.8102188 C91.5621949,22.9286316 90.0083098,23.4878296 88.0958071,23.4878296 C85.896429,23.4878296 83.8936438,22.8114663 82.0873913,21.4587194 L82.0873913,17.4004989 C83.8086437,19.5840668 85.8008041,20.6758343 88.0639322,20.6758343 C89.0626836,20.6758343 89.8940785,20.3962353 90.558142,19.8370289 C91.2222054,19.2778225 91.5542321,18.5774936 91.5542321,17.7360211 C91.5542321,16.3726226 90.5767454,15.0838043 88.6217427,13.8695276 L88.6217427,13.8695276 Z M98.0885835,0.911981194 L101.276072,0.911981194 L101.276072,23.2321937 L98.0885835,23.2321937 L98.0885835,0.911981194 Z M111.731034,13.8695276 L109.308543,12.399621 C107.789166,11.4729361 106.708087,10.5595793 106.065274,9.6595233 C105.42246,8.75946729 105.101058,7.72361954 105.101058,6.55194898 C105.101058,4.79444315 105.709331,3.36715679 106.925895,2.27004709 C108.14246,1.17293739 109.722907,0.624390768 111.667285,0.624390768 C113.526662,0.624390768 115.231951,1.14630891 116.783204,2.19016086 L116.783204,5.81699567 C115.178826,4.27252085 113.452287,3.50029502 111.603535,3.50029502 C110.562283,3.50029502 109.706982,3.74261416 109.037607,4.22725971 C108.368231,4.71190526 108.033548,5.33234877 108.033548,6.08860885 C108.033548,6.75965653 108.277919,7.38808859 108.76667,7.97392386 C109.255421,8.55975914 110.046972,9.17221411 111.141349,9.81130714 L113.579778,11.2492593 C116.299781,12.8682949 117.659763,14.9346647 117.659763,17.4484307 C117.659763,19.2378911 117.062115,20.691806 115.866801,21.8102188 C114.671486,22.9286316 113.117601,23.4878296 111.205099,23.4878296 C109.005721,23.4878296 107.002935,22.8114663 105.196683,21.4587194 L105.196683,17.4004989 C106.917935,19.5840668 108.910096,20.6758343 111.173224,20.6758343 C112.171975,20.6758343 113.00337,20.3962353 113.667434,19.8370289 C114.331497,19.2778225 114.663524,18.5774936 114.663524,17.7360211 C114.663524,16.3726226 113.686037,15.0838043 111.731034,13.8695276 L111.731034,13.8695276 Z M137.772815,23.2321937 L130.234405,23.2321937 L130.234405,0.911981194 L136.067509,0.911981194 C137.905637,0.911981194 139.339992,1.15962603 140.370618,1.65492313 C141.401245,2.15022022 142.187484,2.83190923 142.72936,3.7000106 C143.271236,4.56811196 143.54217,5.57200554 143.54217,6.71172144 C143.54217,8.90594084 142.410622,10.477021 140.147494,11.425009 C141.773122,11.7339039 143.066698,12.4049416 144.028262,13.4381419 C144.989825,14.4713423 145.4706,15.7069037 145.4706,17.144863 C145.4706,18.2845789 145.178417,19.3017867 144.594041,20.1965169 C144.009665,21.0912472 143.151708,21.8208675 142.020144,22.3853996 C140.88858,22.9499318 139.472818,23.2321937 137.772815,23.2321937 L137.772815,23.2321937 Z M136.163134,3.75593096 L133.421894,3.75593096 L133.421894,10.4663742 L135.541573,10.4663742 C137.241576,10.4663742 138.450153,10.1415068 139.167342,9.49176222 C139.88453,8.84201764 140.243119,8.00055777 140.243119,6.96735738 C140.243119,4.82639573 138.883137,3.75593096 136.163134,3.75593096 L136.163134,3.75593096 Z M136.402195,13.310324 L133.421894,13.310324 L133.421894,20.3882439 L136.56157,20.3882439 C138.304072,20.3882439 139.486087,20.2524387 140.107651,19.9808241 C140.729214,19.7092096 141.228582,19.2858168 141.60577,18.7106331 C141.982958,18.1354494 142.171549,17.5176687 142.171549,16.8572726 C142.171549,16.1755733 141.972333,15.552467 141.573895,14.9879348 C141.175457,14.4234026 140.609684,14.0026727 139.876558,13.7257324 C139.143432,13.4487921 137.985322,13.310324 136.402195,13.310324 L136.402195,13.310324 Z M148.610276,0.911981194 L151.797765,0.911981194 L151.797765,20.3243349 L161.822416,20.3243349 L161.822416,23.2321937 L148.610276,23.2321937 L148.610276,0.911981194 Z M175.544554,0.592436277 C178.987059,0.592436277 181.853114,1.68420383 184.142804,3.86777168 C186.432495,6.05133953 187.577323,8.78874695 187.577323,12.0800761 C187.577323,15.3714052 186.42187,18.0954983 184.110929,20.2524373 C181.799989,22.4093763 178.886122,23.4878296 175.369242,23.4878296 C172.011738,23.4878296 169.214744,22.4093763 166.978179,20.2524373 C164.741613,18.0954983 163.623347,15.3927079 163.623347,12.143985 C163.623347,8.81004973 164.749582,6.05133953 167.002085,3.86777168 C169.254588,1.68420383 172.102049,0.592436277 175.544554,0.592436277 L175.544554,0.592436277 Z M175.672054,3.62811299 C173.12205,3.62811299 171.026297,4.42696729 169.384733,6.02469987 C167.743168,7.62243244 166.922398,9.66217377 166.922398,12.143985 C166.922398,14.5512354 167.745824,16.5536969 169.392701,18.1514295 C171.039579,19.7491621 173.1008,20.5480164 175.576429,20.5480164 C178.062682,20.5480164 180.137185,19.733185 181.8,18.1034977 C183.462815,16.4738105 184.29421,14.4447206 184.29421,12.0161671 C184.29421,9.65152286 183.462815,7.66237564 181.8,6.04866574 C180.137185,4.43495584 178.094557,3.62811299 175.672054,3.62811299 L175.672054,3.62811299 Z M210.670677,18.055566 L210.670677,21.5705601 C208.333174,22.8487462 205.634461,23.4878296 202.574457,23.4878296 C200.088203,23.4878296 197.979169,22.9872142 196.247292,21.9859685 C194.515414,20.9847227 193.144808,19.6053676 192.135432,17.8478618 C191.126055,16.090356 190.621375,14.1890827 190.621375,12.143985 C190.621375,8.89526213 191.776828,6.16318041 194.087768,3.94765791 C196.398709,1.7321354 199.248827,0.624390768 202.638206,0.624390768 C204.97571,0.624390768 207.573487,1.23684574 210.431616,2.46177404 L210.431616,5.8968819 C207.828487,4.40566483 205.283834,3.66006748 202.797581,3.66006748 C200.247577,3.66006748 198.130575,4.46691033 196.44651,6.08062023 C194.762445,7.69433013 193.920425,9.71543152 193.920425,12.143985 C193.920425,14.5938416 194.749164,16.6069545 196.406666,18.183384 C198.064169,19.7598134 200.183827,20.5480164 202.765706,20.5480164 C205.46446,20.5480164 208.099424,19.7172079 210.670677,18.055566 L210.670677,18.055566 Z M227.181868,0.911981194 L231.166228,0.911981194 L221.508138,11.488918 L233.540907,23.2321937 L229.174048,23.2321937 L217.810652,12.207894 L217.810652,23.2321937 L214.623163,23.2321937 L214.623163,0.911981194 L217.810652,0.911981194 L217.810652,11.1214413 L227.181868,0.911981194 Z" id="GENESIS-BLOCK"></path>
                            </g>
                            <g id="logomark-copy">
                                <path d="M33.2733646,36.93563 L23.0084097,42.9730027 L9.18387501,34.8479326 L9.31438243,18.7786231 L22.851606,11.1098183 L37.0662021,19.1087503 L46.0367506,13.3778416 L23.1545001,0.230529864 L0.165714499,13.3778412 L0.160357851,40.4477763 L23.1545001,53.7445103 L44.113338,41.2248104 L44.0986237,41.2186966 L44.0986242,32.5806227 L29.1033185,23.9794452 L24.6857603,26.8997055 L24.2274068,31.7154918 L33.2733646,36.93563 Z" id="Path-1" fill="#FFFFFF"></path>
                                <polyline id="Path-4" stroke="#FFFFFF" stroke-width="1.5" points="9.12064977 18.7749779 24.3007238 27.485907 37.1202007 18.4469461"></polyline>
                                <path d="M23.1375978,43.0367823 L24.0811415,27.1927307" id="Path-5" stroke="#FFFFFF" stroke-width="1.5"></path>
                                <path d="M37.0258673,17.7473547 L36.2545111,34.6296757" id="Path-6" stroke="#FFFFFF" stroke-width="1.5"></path>
                            </g>
                        </g>
                    </g>
                </g>
            </g>
        </g>
    </g>
</svg>