<?xml version="1.0" encoding="UTF-8" standalone="no"?>
<svg width="40px" height="39px" viewBox="0 0 40 39" version="1.1" xmlns="http://www.w3.org/2000/svg" xmlns:xlink="http://www.w3.org/1999/xlink">
    <!-- Generator: Sketch 3.8.3 (29802) - http://www.bohemiancoding.com/sketch -->
    <title>linkedin-icon</title>
    <desc>Created with Sketch.</desc>
    <defs></defs>
    <g id="Page-1" stroke="none" stroke-width="1" fill="none" fill-rule="evenodd">
        <g id="Portfolio" transform="translate(-697.000000, -530.000000)" fill="#FFFFFF">
            <g id="top">
                <g id="social-icons" transform="translate(605.000000, 530.000000)">
                    <path d="M125.119416,38.8035714 L98.4146308,38.8035714 C95.0626157,38.8035714 92.3452769,36.0890254 92.3452769,32.7404553 L92.3452769,6.06311612 C92.3452769,2.71454605 95.0626157,0 98.4146308,0 L125.119571,0 C128.471586,0 131.188925,2.71454605 131.188925,6.06311612 L131.188925,32.7406102 C131.18877,36.0890254 128.471431,38.8035714 125.119416,38.8035714 L125.119416,38.8035714 Z M98.5249482,32.630276 L104.263214,32.630276 L104.263214,14.5513393 L98.5249482,14.5513393 L98.5249482,32.630276 L98.5249482,32.630276 Z M101.614784,6.17329545 C99.9083034,6.17329545 98.5249482,7.55522339 98.5249482,9.25994318 C98.5249482,10.964663 99.9083034,12.3465909 101.614784,12.3465909 C103.321264,12.3465909 104.704619,10.964663 104.704619,9.25994318 C104.704619,7.55522339 103.321264,6.17329545 101.614784,6.17329545 L101.614784,6.17329545 Z M126.333314,20.9586336 C126.333314,17.7544434 123.644714,14.5513393 118.675216,14.5513393 C116.171356,14.5513393 114.007922,14.7697821 112.485874,16.6195647 L112.485874,14.5874879 L106.47024,14.5874879 L106.47024,32.630276 L112.423724,32.630276 L112.423724,20.7297961 C113.093543,19.6776091 114.200742,18.7347987 115.850974,18.6699485 C119.665418,18.5144942 120.348289,20.495994 120.348289,23.0952775 L120.348289,32.630276 L126.333469,32.630276 C126.333314,32.630276 126.333314,24.1632892 126.333314,20.9586336 L126.333314,20.9586336 Z" id="linkedin-icon"></path>
                </g>
            </g>
        </g>
    </g>
</svg>