<?xml version="1.0" encoding="UTF-8" standalone="no"?>
<svg width="48px" height="32px" viewBox="0 0 48 32" version="1.1" xmlns="http://www.w3.org/2000/svg" xmlns:xlink="http://www.w3.org/1999/xlink">
    <!-- Generator: Sketch 3.8.3 (29802) - http://www.bohemiancoding.com/sketch -->
    <title>mail-icon</title>
    <desc>Created with Sketch.</desc>
    <defs></defs>
    <g id="Page-1" stroke="none" stroke-width="1" fill="none" fill-rule="evenodd">
        <g id="Portfolio" transform="translate(-782.000000, -534.000000)" fill="#FFFFFF">
            <g id="top">
                <g id="social-icons" transform="translate(605.000000, 530.000000)">
                    <path d="M208.496611,18.8878946 C214.519544,13.8915321 222.996624,6.52178214 224.739781,5.00324464 C224.740806,5.01605714 224.743879,5.02784464 224.743879,5.04116964 L224.743879,34.4940321 C224.743879,34.6713571 224.672166,34.8312571 224.556399,34.9470821 L208.496611,18.8878946 L208.496611,18.8878946 Z M202.013174,21.6887071 C201.270936,22.0966571 200.893927,21.7271446 200.092269,21.6887071 C199.316224,21.6512946 179.048886,5.49165714 177.747793,4.45384464 C177.825654,4.42001964 177.911198,4.40105714 178.001865,4.40105714 L224.103578,4.40105714 C224.170169,4.40105714 224.233175,4.41386964 224.293619,4.43283214 C221.168435,6.87643214 202.692406,21.3156071 202.013174,21.6887071 L202.013174,21.6887071 Z M177.549044,34.9470821 C177.433277,34.8317696 177.361564,34.6713571 177.361564,34.4940321 L177.361564,5.04116964 C177.361564,5.01144464 177.366174,4.98325714 177.370272,4.95455714 C180.049806,7.24081964 190.288996,15.9804821 193.626248,18.8704696 L177.549044,34.9470821 L177.549044,34.9470821 Z M194.649706,19.7678571 C195.59223,20.6467946 199.118498,23.4681071 199.772118,23.6095571 L199.779802,23.6095571 C200.071779,23.8027696 200.530748,23.9298696 201.052721,23.9298696 C201.574695,23.9298696 202.033151,23.8032821 202.325641,23.6095571 L202.333325,23.6095571 C202.672941,23.5941821 204.798742,21.9357321 207.623752,19.6094946 L223.770621,35.1346571 L178.001865,35.1346571 L194.476056,19.6115446 C194.551868,19.6791946 194.615386,19.7355696 194.649706,19.7678571 L194.649706,19.7678571 Z" id="mail-icon"></path>
                </g>
            </g>
        </g>
    </g>
</svg>