<?xml version="1.0" encoding="UTF-8" standalone="no"?>
<svg width="283px" height="79px" viewBox="0 0 283 79" version="1.1" xmlns="http://www.w3.org/2000/svg" xmlns:xlink="http://www.w3.org/1999/xlink">
    <!-- Generator: Sketch 3.8.3 (29802) - http://www.bohemiancoding.com/sketch -->
    <title>safello-logo</title>
    <desc>Created with Sketch.</desc>
    <defs></defs>
    <g id="Page-1" stroke="none" stroke-width="1" fill="none" fill-rule="evenodd">
        <g id="Portfolio" transform="translate(-588.000000, -878.000000)">
            <g id="safello-container" transform="translate(-1.000000, 682.000000)">
                <g id="safello-logo" transform="translate(570.000000, 196.000000)">
                    <path d="M46.8681756,46.8779869 C41.6042121,44.7660394 38.9736057,41.9612691 38.9736057,38.4615098 C38.9736057,36.481116 39.6475157,34.8148359 40.9965144,33.4610941 C42.3441377,32.1089278 44.203579,31.4312691 46.5720875,31.4312691 C49.7946736,31.4312691 52.6241129,32.4214661 55.0586371,34.401663 L58.0191253,27.3714223 C54.2029876,24.8634354 49.5972161,23.6087527 44.2037755,23.6087527 C39.2032852,23.6087527 35.1403747,25.0940481 32.0166155,28.064442 C28.8910881,31.0348359 27.3293068,34.6986433 27.3293068,39.0552735 C27.3293068,45.9214661 31.3753205,50.9047484 39.4671514,54.0068928 C42.2950189,55.0634573 44.3026025,56.2346389 45.4867585,57.5220131 C46.6709145,58.8093873 47.2630907,60.576105 47.2630907,62.8194092 C47.2630907,64.9979212 46.5060718,66.7971335 44.9934093,68.2158643 C43.4791749,69.6361707 41.5055816,70.3447484 39.0724328,70.3447484 C34.9926253,70.3447484 31.6712121,69.3220569 29.105639,67.2752954 L25.9478897,74.9985558 C29.6978153,77.5729103 34.5979067,78.8602845 40.6515039,78.8602845 C46.3086142,78.8602845 50.8803956,77.27593 54.3682232,74.1074179 C57.8544791,70.9389059 59.598393,67.1112473 59.598393,62.621488 C59.5981965,55.5589497 55.3547252,50.3109847 46.8681756,46.8779869 L46.8681756,46.8779869 L46.8681756,46.8779869 Z" id="Shape"></path>
                    <path d="M109.530992,42.0260613 C109.530992,29.7480525 102.984046,23.6089497 89.8932963,23.6089497 C83.2477193,23.6089497 77.1632755,24.9626915 71.6372141,27.6685996 L74.4002448,34.5997812 C78.8733956,32.4214661 83.3139315,31.3322101 87.7222454,31.3322101 C94.7609693,31.3322101 98.2812154,34.2701094 98.2812154,40.1447265 L98.2812154,43.0162582 C88.9388198,43.9414661 81.9647363,45.6571772 77.360733,48.1651641 C71.5045933,51.4002407 68.5780953,56.2519694 68.5780953,62.720744 C68.5780953,73.5475274 75.8142768,78.9595405 90.2882115,78.9595405 C98.3138303,78.9595405 104.728156,77.6723632 109.531189,75.0980088 L109.531189,42.0260613 L109.530992,42.0260613 Z M91.0391397,72.2262801 C83.5640444,72.2262801 79.8278721,68.9262144 79.8278721,62.3247046 C79.8278721,57.7699562 81.4808179,54.4698906 84.7880849,52.4229322 C87.4340163,50.7735886 91.9317265,49.5514004 98.2814119,48.7593217 L98.2814119,70.7411816 C96.2970124,71.7311816 93.8823322,72.2262801 91.0391397,72.2262801 L91.0391397,72.2262801 L91.0391397,72.2262801 Z" id="Shape" fill="#FFFFFF"></path>
                    <path d="M145.401862,24.5991466 L136.717854,24.5991466 L136.717854,16.9300438 C136.717854,11.0199781 139.611934,7.99838074 145.401862,7.86544858 L145.401862,0.142188184 C138.953546,-0.318840263 133.888415,1.05656455 130.204898,4.26997812 C126.519809,7.48339168 124.678837,12.1062801 124.678837,18.1370678 L124.678837,24.5993435 L118.75786,24.5993435 L118.75786,32.3226039 L124.678837,32.3226039 L124.678837,77.9691466 L136.718051,77.9691466 L136.718051,32.322407 L145.402058,32.322407 L145.402058,24.5991466 L145.401862,24.5991466 Z" id="Shape" fill="#FFFFFF"></path>
                    <path d="M190.351457,30.5895624 C186.666368,25.9357549 181.272731,23.6089497 174.167599,23.6089497 C167.127303,23.6089497 161.585523,26.034814 157.539706,30.8867396 C153.493693,35.7384683 151.470784,42.4886652 151.470784,51.135558 C151.470784,60.0471335 153.674057,66.913326 158.082371,71.7311816 C162.489113,76.5504158 168.50872,78.9593435 176.141192,78.9593435 C183.310965,78.9593435 189.167104,77.7062363 193.706467,75.196674 L190.844806,67.5724726 C187.028472,69.5528665 182.555518,70.5428665 177.423978,70.5428665 C168.739971,70.5428665 163.90452,65.5920788 162.917625,55.6903063 L195.482996,50.9376368 C195.745094,42.0260613 194.03517,35.2433698 190.351457,30.5895624 L190.351457,30.5895624 Z M162.227211,49.5514004 C162.094591,43.4122976 163.115279,38.7259956 165.28633,35.490919 C167.259924,32.5205252 170.087791,31.0352298 173.77288,31.0352298 C180.745392,31.0352298 184.233219,36.0850766 184.233219,46.1847702 L162.227211,49.5514004 L162.227211,49.5514004 Z" id="Shape" fill="#FFFFFF"></path>
                    <polygon id="Shape" fill="#FFFFFF" points="219.018563 0.141991247 206.979349 0.141991247 206.979349 77.9691466 219.018563 77.9691466"></polygon>
                    <polygon id="Shape" fill="#FFFFFF" points="245.415988 0.141991247 233.376774 0.141991247 233.376774 77.9691466 245.415988 77.9691466"></polygon>
                    <path d="M295.595557,31.5303282 C291.71301,26.2500656 286.154531,23.6089497 278.918349,23.6089497 C271.747005,23.6089497 266.188328,26.2498687 262.241142,31.5303282 C258.622461,36.4163239 256.813711,43.0162582 256.813711,51.3338731 C256.813711,59.586302 258.622461,66.1537418 262.241142,71.0381619 C266.188525,76.32 271.747005,78.9595405 278.918349,78.9595405 C286.088122,78.9595405 291.64837,76.3201969 295.595557,71.0381619 C299.212862,66.1537418 301.023184,59.586302 301.023184,51.3338731 C301.023184,43.0162582 299.212862,36.4161269 295.595557,31.5303282 L295.595557,31.5303282 L295.595557,31.5303282 Z M278.918349,70.7409847 C272.141723,70.7409847 268.754098,64.2399125 268.754098,51.2346171 C268.754098,37.9014223 272.141723,31.233151 278.918349,31.233151 C285.693403,31.233151 289.082601,37.9014223 289.082601,51.2346171 C289.082601,64.2399125 285.6936,70.7409847 278.918349,70.7409847 L278.918349,70.7409847 L278.918349,70.7409847 Z" id="Shape" fill="#FFFFFF"></path>
                    <polygon id="Shape" points="12.1221266 18.5843107 64.4234308 18.5843107 64.4234308 83.6879869 12.1221266 83.6879869"></polygon>
                    <path d="M59.1028825,44.7975492 C57.938767,46.1648796 56.298985,47.526302 54.1886449,48.8814223 C52.5182128,47.991663 48.7221155,45.9657768 45.8129073,44.3796499 C46.9170979,43.6019475 47.7658708,42.8701313 48.3554928,42.185186 C49.502515,40.8523195 50.076812,39.2604814 50.076812,37.4096718 C50.076812,35.450547 49.3005385,33.8319256 47.7505457,32.5526258 C46.1991775,31.2745077 44.2452317,30.634267 41.8883153,30.634267 C39.4691162,30.634267 37.5149739,31.2605252 36.0260849,32.51186 C34.5373923,33.7643764 33.7929478,35.3690153 33.7929478,37.32814 C33.7929478,39.233698 34.3513303,40.8255361 35.4678988,42.1036543 C36.4180529,43.1923195 38.1346567,44.4682713 40.6126018,45.931116 C40.5890248,45.9624289 40.5752715,45.9813348 40.5752715,45.9813348 C40.5752715,45.9813348 40.9593805,46.176302 41.5806351,46.4902188 C41.7132559,46.5652516 41.8450907,46.6400875 41.9814445,46.7159081 C41.9889106,46.7117724 41.9959837,46.7076368 42.0036462,46.703698 C44.7845561,48.106477 50.7350039,51.088884 51.6417369,51.3852735 C52.8459334,52.0662801 53.9575901,52.7591028 54.9794576,53.4633479 L37.1809661,53.4633479 C35.066107,52.4276586 32.8213779,51.4053611 31.5480222,50.8336543 C24.8578453,46.9382495 21.5106939,42.5455799 21.5106939,37.6548578 C21.5106939,33.4650328 23.4021606,30.063151 27.1868623,27.4509847 C30.9699922,24.8388184 35.7779367,23.5327352 41.609517,23.5327352 C47.4397219,23.5327352 52.2476664,24.8260175 56.0321717,27.4102188 C59.8153016,29.9956018 61.7081436,33.3833042 61.7081436,37.5731291 C61.7083401,40.3485558 60.8389373,42.7566958 59.1028825,44.7975492 L59.1028825,44.7975492 Z" id="Shape"></path>
                    <path d="M23.8570007,57.2270022 C25.0211162,55.8596718 26.6608982,54.4982495 28.7712383,53.1431291 C30.4416704,54.0328884 34.2377676,56.0587746 37.1469758,57.6449015 C36.0427852,58.4226039 35.1940124,59.1544201 34.6041939,59.8393654 C33.4571717,61.1722319 32.8828747,62.76407 32.8828747,64.6148796 C32.8828747,66.5740044 33.6593446,68.1926258 35.209141,69.4719256 C36.7605091,70.7500438 38.714455,71.3902845 41.0711749,71.3902845 C43.490374,71.3902845 45.4445163,70.7640263 46.9334054,69.5126915 C48.4222944,68.2601751 49.1665424,66.6555361 49.1665424,64.6964114 C49.1665424,62.7908534 48.6081599,61.1990153 47.4915914,59.9208972 C46.5414373,58.8322319 44.8248336,57.5562801 42.3468884,56.0934354 C42.3704654,56.0621225 42.3842187,56.0432166 42.3842187,56.0432166 C42.3842187,56.0432166 42.0001097,55.8482495 41.3788551,55.5343326 C41.2462343,55.4592998 41.1143995,55.3844639 40.9780457,55.3086433 C40.9705796,55.312779 40.9635065,55.3167177 40.955844,55.3208534 C38.1749341,53.9180744 32.2244863,50.9356674 31.3177533,50.6392779 C30.1135568,49.9582713 29.0019001,49.2652516 27.9800326,48.5612035 L45.7789171,48.5612035 C47.8937761,49.5968928 50.1383087,50.6191904 51.411861,51.1908972 C58.1020379,55.086302 61.4489928,59.4789716 61.4489928,64.3696937 C61.4489928,68.5595186 59.5575261,71.9614004 55.7730209,74.5735667 C51.989891,77.185733 47.1819465,78.4918162 41.3503662,78.4918162 C35.5201612,78.4918162 30.7120202,77.1985339 26.9277115,74.6143326 C23.1445816,72.0289497 21.2517396,68.6412473 21.2517396,64.4514223 C21.2515431,61.6759956 22.1209458,59.2678556 23.8570007,57.2270022 L23.8570007,57.2270022 Z" id="Shape"></path>
                    <polygon id="Shape" points="0.0335972585 12.8908753 66.3972206 12.8908753 66.3972206 90.1238731 0.0335972585 90.1238731"></polygon>
                    <path d="M57.5908094,44.9889716 C56.4125477,46.368512 54.7527252,47.7423414 52.6166469,49.1096718 C50.9257813,48.212035 47.0835124,46.1676368 44.1387422,44.5673304 C45.2562931,43.7825383 46.1154791,43.0442232 46.7123708,42.3531729 C47.8735392,41.0082932 48.4547128,39.4020788 48.4547128,37.5347265 C48.4547128,35.5578775 47.668812,33.9246827 46.100154,32.6337637 C44.5299243,31.3442232 42.5520085,30.6980744 40.1666031,30.6980744 C37.7177363,30.6980744 35.7398205,31.3300438 34.2330522,32.5926039 C32.7260875,33.8563457 31.9726051,35.4753611 31.9726051,37.4522101 C31.9726051,39.3749015 32.5376678,40.981116 33.6679896,42.2706565 C34.6297356,43.3691685 36.342017,44.7024289 38.8500228,46.1782713 C38.8260529,46.2099781 38.7286012,46.1032385 38.8500228,46.1782713 C39.0415862,46.3131729 39.2243081,46.4205033 39.8551899,46.6966083 C39.9893825,46.7722319 40.1406684,46.8179212 40.2787905,46.8945295 C40.286453,46.8903939 40.2711279,46.8986652 40.2787905,46.8945295 C41.2578264,47.3868709 42.7308009,48.06 44.1363845,48.7569584 L44.1363845,48.7569584 C46.2769817,49.8021007 48.5171919,50.8631947 49.8062657,51.4400219 C50.5013949,51.8435449 51.1588009,52.2523851 51.7826097,52.6665427 C52.3510124,53.0190591 52.7586984,53.4127352 53.2803401,53.7711597 L53.2803401,53.7711597 C57.7255914,57.1098249 59.965998,60.7395624 59.965998,64.7375711 C59.965998,68.9654048 58.0513473,72.3976149 54.2206704,75.0334136 C50.3913688,77.6692123 45.5246782,78.9869147 39.6219739,78.9869147 C33.7206449,78.9869147 28.8539543,77.6820131 25.0232774,75.0745733 C21.1939758,72.4657549 19.2779497,69.0475274 19.2779497,64.8198906 C19.2779497,62.019453 20.1579621,59.5896499 21.9150398,57.5304814 C23.0933016,56.1509409 24.7529275,54.7771116 26.8892023,53.4097812 C28.5800679,54.3074179 32.4223368,56.3516193 35.367107,57.9519256 C34.2493597,58.7367177 33.3903701,59.4750328 32.7934785,60.1662801 C31.6323101,61.5111597 31.0511364,63.1171772 31.0511364,64.9847265 C31.0511364,66.9615755 31.8370372,68.5947702 33.4058916,69.8854923 C34.9761214,71.1750328 36.9540372,71.8211816 39.3394426,71.8211816 C41.7883094,71.8211816 43.7662252,71.1894092 45.2731899,69.9266521 C46.7801547,68.6629103 47.5336371,67.043895 47.5336371,65.067046 C47.5336371,63.1441575 46.9685744,61.53814 45.8384491,60.2485996 C44.8765065,59.1500875 43.1390764,57.8625164 40.6310705,56.3868709 C40.6084758,56.3782057 40.5648584,56.3498468 40.5648584,56.3498468 C40.5648584,56.3498468 40.2801658,56.1395186 39.6510522,55.8226477 C39.5168597,55.7470241 39.4168538,55.71 39.2789282,55.6335886 C39.2712657,55.6377243 39.2865907,55.629453 39.2789282,55.6335886 C38.2998923,55.1412473 36.8269178,54.4681182 35.4213342,53.7711597 L35.4213342,53.7711597 C33.2805405,52.7260175 30.9411103,51.5833917 29.6520366,51.0065646 C28.9569073,50.6030416 28.3474413,50.2670678 27.7236325,49.8531072 C27.1554262,49.5005908 26.9673995,49.3326039 26.4455614,48.9743764 L26.2097911,48.7868928 C21.7645398,45.4482276 19.5402441,41.7800875 19.5402441,37.7820788 C19.5402441,33.554442 21.4548949,30.122035 25.2855718,27.4862363 C29.1148734,24.8504376 33.9813675,23.5325383 39.8840718,23.5325383 C45.7854008,23.5325383 50.6520914,24.8374398 54.4827683,27.4448796 C58.3120698,30.053698 60.2278995,33.4719256 60.2278995,37.6995624 C60.228096,40.5 59.3480836,42.9298031 57.5908094,44.9889716 L57.5908094,44.9889716 Z" id="Shape" fill="#FFFFFF"></path>
                </g>
            </g>
        </g>
    </g>
</svg>