<?xml version="1.0" encoding="UTF-8" standalone="no"?>
<svg width="47px" height="39px" viewBox="0 0 47 39" version="1.1" xmlns="http://www.w3.org/2000/svg" xmlns:xlink="http://www.w3.org/1999/xlink">
    <!-- Generator: Sketch 3.8.3 (29802) - http://www.bohemiancoding.com/sketch -->
    <title>twitter-icon</title>
    <desc>Created with Sketch.</desc>
    <defs></defs>
    <g id="Page-1" stroke="none" stroke-width="1" fill="none" fill-rule="evenodd">
        <g id="Portfolio" transform="translate(-605.000000, -532.000000)" fill="#FFFFFF">
            <g id="top">
                <g id="social-icons" transform="translate(605.000000, 530.000000)">
                    <path d="M22.3035157,13.9262855 C22.3035157,13.9262855 21.2280684,5.46931721 28.4673109,2.88239669 C28.4673109,2.88239669 34.6301047,0.294971308 38.7381332,5.17043802 C38.7381332,5.17043802 43.5315841,4.37477317 44.6080328,2.88239669 C44.6080328,2.88239669 44.3131359,5.87724691 40.9886619,8.06128637 C40.9886619,8.06128637 44.0222445,8.05623773 46.1726384,6.86173071 C46.1726384,6.86173071 43.1470667,10.7123245 41.8363027,11.3126072 C40.4985023,11.8371604 43.1405579,20.4945595 35.2163937,30.7437932 C35.2163937,30.7437932 29.2133148,39.0003307 17.9992231,40.593175 C13.4385854,41.2414198 6.75008416,41.7871772 0,36.6143459 C0,36.6143459 6.8467142,37.5084591 13.6949304,32.3351229 C13.6949304,32.3351229 6.6519521,31.7378694 4.98871374,25.7678587 C4.98871374,25.7678587 8.21655772,25.7678587 8.9009788,25.6694103 C8.9009788,25.6694103 1.36884217,23.0804703 1.46647356,15.7675227 C1.46647356,15.7675227 4.00989646,16.9120482 5.428806,16.7626086 C5.42830533,16.7621037 -0.930251919,11.9356088 2.8358164,3.97643587 C2.8358164,3.97643587 9.68403262,13.7268644 22.3035157,13.9262855 Z" id="twitter-icon"></path>
                </g>
            </g>
        </g>
    </g>
</svg>